<?xml version="1.0" standalone="no"?>
<!DOCTYPE svg PUBLIC "-//W3C//DTD SVG 20010904//EN"
 "http://www.w3.org/TR/2001/REC-SVG-20010904/DTD/svg10.dtd">
<svg version="1.0" xmlns="http://www.w3.org/2000/svg"
 width="756.000000pt" height="756.000000pt" viewBox="0 0 756.000000 756.000000"
 preserveAspectRatio="xMidYMid meet">
<metadata>
Created by potrace 1.14, written by Peter Selinger 2001-2017
</metadata>
<g transform="translate(0.000000,756.000000) scale(0.100000,-0.100000)"
fill="#000000" stroke="none">
<path d="M1690 6838 c-1 -18 -1 -257 -1 -531 l0 -498 -22 -9 c-12 -5 -74 -23
-137 -39 -63 -16 -185 -48 -270 -71 -85 -23 -162 -44 -170 -46 -8 -2 -31 -8
-50 -13 -19 -5 -102 -28 -185 -50 -82 -22 -150 -41 -150 -41 0 -1 -9 -3 -20
-6 -11 -2 -130 -33 -265 -70 -235 -63 -307 -82 -340 -89 -8 -2 -16 -4 -17 -5
-2 -2 -6 -3 -10 -4 -35 -8 -53 -20 -53 -34 0 -15 36 -153 96 -371 8 -30 16
-62 18 -70 2 -9 6 -23 9 -31 5 -14 65 -239 72 -270 2 -8 13 -51 25 -95 12 -44
24 -91 27 -105 2 -14 8 -34 13 -45 5 -11 11 -31 14 -45 4 -22 29 -119 41 -160
18 -61 57 -209 60 -225 2 -11 20 -78 40 -150 20 -71 38 -137 40 -145 2 -8 9
-35 16 -60 7 -25 13 -49 15 -55 2 -9 18 -68 85 -320 17 -60 32 -117 34 -125 1
-8 10 -42 20 -75 9 -33 24 -91 35 -130 10 -38 32 -122 49 -185 18 -63 34 -126
37 -140 2 -14 7 -32 10 -40 5 -13 15 -49 40 -140 2 -8 12 -49 23 -90 11 -41
29 -111 41 -155 12 -44 24 -89 26 -99 2 -10 8 -33 14 -51 6 -18 12 -41 15 -51
2 -10 15 -62 30 -114 14 -52 28 -102 29 -110 7 -26 75 -284 86 -320 6 -19 39
-141 73 -272 51 -193 65 -235 77 -228 8 4 29 11 45 13 17 3 95 24 175 46 116
31 274 73 440 117 8 2 40 11 70 19 30 9 63 18 73 20 10 2 52 14 95 25 42 12
84 23 92 25 8 2 35 9 60 16 25 7 50 13 55 14 6 2 53 14 105 29 97 26 177 48
195 52 6 1 22 5 37 9 l27 7 -5 -78 c-3 -43 -7 -81 -10 -86 -3 -4 3 -9 13 -9
35 -2 183 -15 278 -25 22 -2 69 -6 105 -8 36 -3 81 -7 100 -10 19 -3 71 -8
115 -11 82 -6 180 -14 250 -20 22 -2 76 -6 120 -10 44 -3 94 -7 110 -10 17 -2
68 -7 115 -11 47 -3 101 -8 120 -10 19 -2 69 -6 110 -9 41 -3 86 -8 100 -10
14 -2 66 -7 115 -10 50 -3 106 -8 125 -10 19 -2 69 -7 110 -10 110 -9 167 -14
240 -21 36 -3 83 -8 105 -9 82 -6 191 -16 230 -20 22 -3 72 -7 110 -10 39 -4
93 -8 120 -10 28 -3 76 -7 108 -9 32 -3 84 -7 115 -10 160 -16 251 -24 347
-31 33 -2 80 -6 105 -8 66 -7 167 -17 235 -23 33 -2 85 -7 115 -10 30 -3 82
-7 115 -9 33 -2 85 -7 115 -10 80 -8 144 -14 240 -20 47 -3 96 -8 110 -11 14
-2 64 -7 113 -10 l87 -6 2 34 c1 35 2 42 12 148 3 36 8 99 12 140 3 41 7 91
10 110 2 19 6 67 9 105 3 39 8 95 11 125 3 30 7 80 9 110 3 30 7 78 10 105 2
28 7 82 10 120 3 39 8 90 10 115 7 67 17 189 20 235 2 22 4 40 4 40 1 0 4 31
6 70 3 38 7 86 10 105 2 19 7 71 10 115 3 44 8 100 10 125 6 53 15 157 20 220
6 82 16 194 21 240 2 25 7 74 9 110 3 36 7 85 10 110 4 40 12 130 20 230 3 37
13 151 21 235 3 28 7 82 9 120 2 39 7 90 10 115 4 25 8 65 10 90 2 25 6 77 9
115 3 39 8 97 11 130 3 33 8 87 11 120 8 81 14 150 18 210 2 28 6 77 10 110 3
33 8 89 11 125 3 36 8 85 10 110 4 41 13 150 20 225 13 162 15 215 8 216 -4 0
-21 2 -38 4 -16 2 -61 6 -100 10 -70 6 -96 9 -235 20 -41 4 -95 9 -120 11 -25
2 -76 6 -114 9 -38 2 -85 7 -106 10 -20 3 -68 8 -106 10 -38 3 -89 7 -114 9
-25 3 -79 7 -120 11 -41 3 -95 8 -120 10 -25 2 -74 7 -110 10 -35 3 -67 10
-70 14 -3 5 -5 327 -4 715 l1 706 -2254 0 -2253 0 0 -32z"/>
</g>
</svg>
